<svg width="37" height="41" viewBox="0 0 37 41" fill="none" xmlns="http://www.w3.org/2000/svg">
<path d="M3.70005 3.7C3.70005 1.65655 5.35659 0 7.40005 0C9.4435 0 11.1 1.65655 11.1 3.7V37C11.1 39.0435 9.4435 40.7 7.40005 40.7C5.35659 40.7 3.70005 39.0435 3.70005 37V3.7Z" fill="#FCDA00"/>
<path d="M25.9001 3.7C25.9001 1.65655 27.5566 0 29.6001 0C31.6435 0 33.3001 1.65655 33.3001 3.7V37C33.3001 39.0435 31.6435 40.7 29.6001 40.7C27.5566 40.7 25.9001 39.0435 25.9001 37V3.7Z" fill="#FCDA00"/>
<path d="M37 24.0499C37 28.1368 33.687 31.4499 29.6 31.4499C25.5131 31.4499 22.2 28.1368 22.2 24.0499C22.2 19.963 25.5131 16.6499 29.6 16.6499C33.687 16.6499 37 19.963 37 24.0499Z" fill="#FCDA00"/>
<path d="M14.8 16.65C14.8 20.7369 11.4869 24.05 7.4 24.05C3.31309 24.05 0 20.7369 0 16.65C0 12.5631 3.31309 9.25 7.4 9.25C11.4869 9.25 14.8 12.5631 14.8 16.65Z" fill="#FCDA00"/>
</svg>
