<svg width="55" height="49" viewBox="0 0 55 49" fill="none" xmlns="http://www.w3.org/2000/svg">
<path d="M0 17.27C0 14.0228 2.6324 11.3904 5.87963 11.3904H12.5V36.3904H5.87963C2.6324 36.3904 0 33.758 0 30.5108V17.27Z" fill="#FCDA00"/>
<path d="M8.96611 12.2127C12.9909 5.27658 19.0527 1.9261 23.5693 0.323327C26.9736 -0.884768 30.2648 1.42917 30.855 4.99301C31.5991 9.48663 32.4034 16.1845 32.4034 24.1428C32.8037 32.4197 31.8865 39.1757 30.9995 43.525C30.341 46.7541 27.3399 48.7861 24.2046 47.7709C19.7474 46.3276 13.4542 43.0389 8.96611 35.5683C7.0113 30.3333 7.0113 17.288 8.96611 12.2127Z" fill="#FCDA00"/>
<path d="M43.5681 5.81393C42.3208 5.2218 40.8296 5.75292 40.2375 7.00022C39.6454 8.24752 40.1765 9.73867 41.4238 10.3308C46.4992 12.7403 50 17.9089 50 23.8902C50 29.8687 46.5026 35.0352 41.4311 37.4462C40.1842 38.039 39.6539 39.5304 40.2467 40.7774C40.8395 42.0244 42.3309 42.5547 43.5779 41.9619C50.3263 38.7537 55 31.8702 55 23.8902C55 15.9064 50.3218 9.02012 43.5681 5.81393Z" fill="#FCDA00"/>
<path d="M38.3068 14.4508C37.0037 13.9944 35.5773 14.6807 35.1209 15.9838C34.6644 17.2868 35.3507 18.7132 36.6538 19.1697C37.2757 19.3875 37.8438 19.7263 38.329 20.1597C39.3581 21.0789 40 22.4081 40 23.8904C40 25.3742 39.3569 26.7045 38.3261 27.6238C37.8433 28.0544 37.2786 28.3913 36.6606 28.6088C35.3581 29.0671 34.6739 30.4945 35.1323 31.7969C35.5906 33.0993 37.018 33.7836 38.3204 33.3252C39.5644 32.8874 40.6936 32.212 41.6541 31.3553C43.7036 29.5275 45 26.8587 45 23.8904C45 20.925 43.706 18.2585 41.66 16.4308C40.6947 15.5685 39.5587 14.8894 38.3068 14.4508Z" fill="#FCDA00"/>
</svg>
